HIERARCHY
ROOT Hips
{
    OFFSET 0.000000 0.000000 0.000000
    CHANNELS 6 Xposition Yposition Zposition Zrotation Xrotation Yrotation
    JOINT Chest
    {
        OFFSET -0.000000 0.078598 0.000000
        CHANNELS 3 Zrotation Xrotation Yrotation
        JOINT Chest2
        {
            OFFSET -0.000000 0.230468 0.000000
            CHANNELS 3 Zrotation Xrotation Yrotation
            JOINT Neck
            {
                OFFSET -0.000000 0.249638 0.000000
                CHANNELS 3 Zrotation Xrotation Yrotation
                JOINT Head
                {
                    OFFSET -0.000000 0.103998 0.019170
                    CHANNELS 3 Zrotation Xrotation Yrotation
                    End Site
                    {
                        OFFSET -0.000000 0.191701 0.000000
                    }
                }
            }
            JOINT LeftCollar
            {
                OFFSET 0.038274 0.205938 -0.001496
                CHANNELS 3 Zrotation Xrotation Yrotation
                JOINT LeftShoulder
                {
                    OFFSET 0.132388 0.000000 0.000000
                    CHANNELS 3 Zrotation Xrotation Yrotation
                    JOINT LeftElbow
                    {
                        OFFSET 0.250301 0.000000 0.000000
                        CHANNELS 3 Zrotation Xrotation Yrotation
                        JOINT LeftWrist
                        {
                            OFFSET 0.285291 0.000000 0.000000
                            CHANNELS 3 Zrotation Xrotation Yrotation
                            End Site
                            {
                                OFFSET 0.000000 -0.143776 0.000000
                            }
                        }
                    }
                }
            }
            JOINT RightCollar
            {
                OFFSET -0.038406 0.205938 -0.001496
                CHANNELS 3 Zrotation Xrotation Yrotation
                JOINT RightShoulder
                {
                    OFFSET -0.132388 0.000000 0.000000
                    CHANNELS 3 Zrotation Xrotation Yrotation
                    JOINT RightElbow
                    {
                        OFFSET -0.250301 0.000000 0.000000
                        CHANNELS 3 Zrotation Xrotation Yrotation
                        JOINT RightWrist
                        {
                            OFFSET -0.285291 0.000000 0.000000
                            CHANNELS 3 Zrotation Xrotation Yrotation
                            End Site
                            {
                                OFFSET -0.000000 -0.143776 0.000000
                            }
                        }
                    }
                }
            }
        }
    }
    JOINT LeftHip
    {
        OFFSET 0.095851 0.000000 0.000000
        CHANNELS 3 Zrotation Xrotation Yrotation
        JOINT LeftKnee
        {
            OFFSET -0.000000 -0.406444 0.000000
            CHANNELS 3 Zrotation Xrotation Yrotation
            JOINT LeftAnkle
            {
                OFFSET -0.000000 -0.408443 0.000000
                CHANNELS 3 Zrotation Xrotation Yrotation
                JOINT LeftToe
                {
                    OFFSET -0.000000 -0.062303 0.143776
                    CHANNELS 3 Zrotation Xrotation Yrotation
                    End Site
                    {
                        OFFSET -0.000000 0.000000 0.038340
                    }
                }
            }
        }
    }
    JOINT RightHip
    {
        OFFSET -0.095851 0.000000 0.000000
        CHANNELS 3 Zrotation Xrotation Yrotation
        JOINT RightKnee
        {
            OFFSET -0.000000 -0.406444 0.000000
            CHANNELS 3 Zrotation Xrotation Yrotation
            JOINT RightAnkle
            {
                OFFSET -0.000000 -0.408443 0.000000
                CHANNELS 3 Zrotation Xrotation Yrotation
                JOINT RightToe
                {
                    OFFSET -0.000000 -0.062303 0.143776
                    CHANNELS 3 Zrotation Xrotation Yrotation
                    End Site
                    {
                        OFFSET -0.000000 0.000000 0.038340
                    }
                }
            }
        }
    }
}
MOTION
Frames:    9
Frame Time:    0.016667
0.009311    0.883738    0.365130    -0.375243    1.948061    179.958466    -0.571274    -2.806308    0.039415    -0.692596    2.186332    0.031973    1.749280    5.728604    -0.421836    -3.851263    -1.274264    0.340722    13.555847    -0.295490    -3.047423    -15.257416    -1.977348    -8.029717    -0.912188    -7.537281    0.676702    94.141220    -3.417705    7.655550    -10.073599    -1.742349    0.807332    13.919546    -6.632088    5.243457    -0.951191    -7.465248    1.272458    -86.862419    0.787753    -7.476350    4.171340    10.079261    1.819082    -0.042638    -5.290150    7.688059    -5.304692    -6.414598    13.700671    0.000000    0.000000    0.000000    -6.680710    11.362660    2.956279    -0.559168    -9.040678    0.898491    4.916418    -4.699328    -16.202820    0.000000    0.000000    0.000000    
0.009378    0.883697    0.365347    -0.328625    1.932578    -179.957611    -0.509682    -2.829538    0.038072    -0.729761    2.175966    0.029781    1.758000    5.830364    -0.392831    -3.825135    -1.341075    0.367701    13.540895    -0.194041    -3.088753    -15.206545    -2.033172    -8.000673    -0.990348    -7.688423    0.611009    94.484909    -3.534497    7.821641    -10.055352    -1.738804    0.790349    14.705026    -3.810171    5.353963    -2.887203    -8.826127    1.089769    -85.790894    0.729979    -8.825812    4.245440    10.062557    1.624168    -0.017773    -5.336645    7.723657    -5.412767    -6.510789    13.725772    0.000000    0.000000    0.000000    -6.613109    11.337996    2.949622    -0.568351    -9.008472    0.910032    4.946973    -4.726167    -16.304779    0.000000    0.000000    0.000000    
0.009397    0.883692    0.365596    -0.338544    1.931455    -179.867416    -0.509637    -2.806307    0.018766    -0.760573    2.118510    0.026054    1.755282    5.871633    -0.372125    -3.859765    -1.299888    0.395647    13.415715    -0.212596    -2.983572    -15.024225    -2.073232    -8.109403    -1.115809    -7.665334    0.668764    94.727982    -3.371276    7.798101    -10.026735    -1.727883    0.759866    15.229068    -2.076394    5.445602    -4.135332    -9.615131    0.923872    -85.557419    0.829989    -9.614441    4.255343    10.013460    1.800646    -0.076706    -5.314540    7.548301    -5.286448    -6.434184    13.679104    0.000000    0.000000    0.000000    -6.600679    11.353532    2.894485    -0.574569    -9.044587    0.864419    4.928855    -4.680612    -16.303699    0.000000    0.000000    0.000000    
0.009301    0.883605    0.365731    -0.412716    1.952480    -179.756180    -0.581134    -2.805267    -0.015011    -0.790857    2.123659    0.030476    1.804607    5.890004    -0.392097    -3.993568    -1.275924    0.400094    13.446824    -0.253551    -2.981231    -15.117343    -1.966478    -8.103626    -1.023852    -7.750740    0.646291    95.007698    -3.194857    7.884755    -10.039883    -1.734376    0.742859    15.343885    -2.116573    5.403685    -4.150869    -9.623020    0.981347    -85.676422    0.829319    -9.619256    4.176594    10.015216    1.768462    -0.052994    -5.339043    7.605530    -5.312306    -6.374582    13.556735    0.000000    0.000000    0.000000    -6.679823    11.402321    2.847782    -0.557796    -9.034472    0.817323    4.868495    -4.774819    -16.287731    0.000000    0.000000    0.000000    
0.009283    0.883611    0.365950    -0.420582    1.954410    -179.678635    -0.607845    -2.806248    -0.015612    -0.778056    2.106074    0.013723    1.835186    5.912277    -0.402085    -4.143678    -1.264119    0.414738    13.494042    -0.200167    -3.004534    -15.215194    -2.028071    -8.087447    -0.971217    -7.638903    0.675408    94.809105    -3.178560    7.766739    -10.013994    -1.690781    0.737329    15.344844    -2.203076    5.382900    -4.094654    -9.635359    1.040114    -85.400261    0.764099    -9.629382    4.176979    9.988203    1.781363    -0.052026    -5.340601    7.504718    -5.308181    -6.365006    13.568677    0.000000    0.000000    0.000000    -6.678552    11.400187    2.827037    -0.547989    -9.039288    0.807312    4.883793    -4.767512    -16.353943    0.000000    0.000000    0.000000    
0.009243    0.883635    0.366151    -0.429593    1.961527    -179.600327    -0.616333    -2.842863    -0.048047    -0.790471    2.165007    0.002611    1.824341    5.875444    -0.388653    -4.203670    -1.212845    0.434822    13.517409    -0.202805    -3.000539    -15.170153    -2.083281    -8.054543    -1.133558    -7.618791    0.682391    94.653000    -3.287121    7.745680    -10.005183    -1.680759    0.768367    15.381803    -2.217012    5.370463    -4.099914    -9.620082    1.038108    -84.949287    0.785345    -9.618087    4.174700    9.977902    1.761277    -0.021937    -5.354269    7.379332    -5.341371    -6.351992    13.566628    0.000000    0.000000    0.000000    -6.679207    11.397718    2.782405    -0.552468    -9.001184    0.796847    4.862266    -4.815718    -16.361830    0.000000    0.000000    0.000000    
0.009155    0.883563    0.366311    -0.398803    1.989418    -179.520599    -0.588996    -2.795375    -0.053320    -0.786533    2.112028    0.001787    1.809601    5.853880    -0.364692    -4.235131    -1.131103    0.462762    13.567662    -0.302296    -3.008953    -15.241157    -2.305585    -8.041089    -1.286716    -7.479522    0.725785    94.560959    -3.302063    7.602978    -9.985243    -1.652691    0.751784    15.516502    -1.986543    5.462941    -4.389193    -9.693279    0.789220    -84.901962    0.722609    -9.695632    4.194438    9.996053    1.764693    0.012722    -5.382392    7.328449    -5.352423    -6.379796    13.526752    0.000000    0.000000    0.000000    -6.638228    11.425724    2.756826    -0.545697    -9.004169    0.730054    4.854228    -4.790465    -16.384270    0.000000    0.000000    0.000000    
0.009176    0.883474    0.366514    -0.371889    2.018495    -179.423508    -0.538248    -2.797911    -0.092431    -0.891896    2.168371    -0.010797    1.860479    5.790470    -0.361690    -4.241941    -1.060354    0.477848    13.673172    -0.369694    -2.979934    -15.329832    -1.918747    -8.053075    -1.138407    -7.687549    0.775844    94.210617    -3.339056    7.802686    -9.868540    -1.689038    0.800723    15.508768    -2.056353    5.383956    -4.389380    -9.594786    0.822269    -85.063873    0.812823    -9.598745    4.237642    10.024574    1.756633    -0.021273    -5.454886    7.376513    -5.303905    -6.346958    13.463039    0.000000    0.000000    0.000000    -6.582442    11.474457    2.672831    -0.572280    -9.000747    0.684074    4.819693    -4.805042    -16.314917    0.000000    0.000000    0.000000    
0.009147    0.883487    0.366618    -0.365749    2.034006    -179.363190    -0.545484    -2.785732    -0.093492    -0.881417    2.151434    -0.012325    1.777642    5.764510    -0.367275    -4.184421    -1.002215    0.451584    13.674069    -0.373621    -2.996921    -15.316388    -1.924482    -8.043447    -1.189411    -7.694705    0.784126    94.233040    -3.324452    7.809541    -9.895956    -1.676474    0.799235    15.542563    -2.037140    5.372278    -4.359909    -9.547769    0.798575    -84.812134    0.911067    -9.559068    4.248478    10.044601    1.767646    -0.020172    -5.495856    7.228189    -5.308895    -6.336997    13.547277    0.000000    0.000000    0.000000    -6.566967    11.503623    2.648128    -0.578084    -9.009638    0.657305    4.829629    -4.805737    -16.312780    0.000000    0.000000    0.000000    
